<mxfile host="app.diagrams.net" agent="Mozilla/5.0 (Macintosh; Intel Mac OS X 10_15_7) AppleWebKit/537.36 (KHTML, like Gecko) Chrome/134.0.0.0 Safari/537.36" version="26.1.3">
  <diagram name="Page-1" id="AM6SDzBY6cQjV_taC49A">
    <mxGraphModel dx="758" dy="504" grid="1" gridSize="10" guides="1" tooltips="1" connect="1" arrows="1" fold="1" page="1" pageScale="1" pageWidth="850" pageHeight="1100" math="0" shadow="0">
      <root>
        <mxCell id="0" />
        <mxCell id="1" parent="0" />
        <mxCell id="qFBe6iegYuQv1x9OlSm3-5" style="edgeStyle=orthogonalEdgeStyle;rounded=0;orthogonalLoop=1;jettySize=auto;html=1;" edge="1" parent="1" source="qFBe6iegYuQv1x9OlSm3-4">
          <mxGeometry relative="1" as="geometry">
            <mxPoint x="480" y="264" as="targetPoint" />
          </mxGeometry>
        </mxCell>
        <mxCell id="qFBe6iegYuQv1x9OlSm3-16" style="edgeStyle=orthogonalEdgeStyle;rounded=0;orthogonalLoop=1;jettySize=auto;html=1;entryX=0.5;entryY=0;entryDx=0;entryDy=0;" edge="1" parent="1" source="qFBe6iegYuQv1x9OlSm3-4" target="qFBe6iegYuQv1x9OlSm3-15">
          <mxGeometry relative="1" as="geometry" />
        </mxCell>
        <mxCell id="qFBe6iegYuQv1x9OlSm3-4" value="" style="sketch=0;outlineConnect=0;fontColor=#232F3E;gradientColor=none;fillColor=#ED7100;strokeColor=none;dashed=0;verticalLabelPosition=bottom;verticalAlign=top;align=center;html=1;fontSize=12;fontStyle=0;aspect=fixed;pointerEvents=1;shape=mxgraph.aws4.lambda_function;" vertex="1" parent="1">
          <mxGeometry x="350" y="240" width="48" height="48" as="geometry" />
        </mxCell>
        <mxCell id="qFBe6iegYuQv1x9OlSm3-7" style="edgeStyle=orthogonalEdgeStyle;rounded=0;orthogonalLoop=1;jettySize=auto;html=1;" edge="1" parent="1" source="qFBe6iegYuQv1x9OlSm3-6" target="qFBe6iegYuQv1x9OlSm3-4">
          <mxGeometry relative="1" as="geometry" />
        </mxCell>
        <mxCell id="qFBe6iegYuQv1x9OlSm3-6" value="Amazon API Gateway" style="sketch=0;outlineConnect=0;fontColor=#232F3E;gradientColor=none;strokeColor=#ffffff;fillColor=#232F3E;dashed=0;verticalLabelPosition=middle;verticalAlign=bottom;align=center;html=1;whiteSpace=wrap;fontSize=10;fontStyle=1;spacing=3;shape=mxgraph.aws4.productIcon;prIcon=mxgraph.aws4.api_gateway;" vertex="1" parent="1">
          <mxGeometry x="180" y="209" width="80" height="110" as="geometry" />
        </mxCell>
        <mxCell id="qFBe6iegYuQv1x9OlSm3-8" value="/get_all" style="shape=process;whiteSpace=wrap;html=1;backgroundOutline=1;" vertex="1" parent="1">
          <mxGeometry x="620" y="154" width="120" height="60" as="geometry" />
        </mxCell>
        <mxCell id="qFBe6iegYuQv1x9OlSm3-9" value="/get_many" style="shape=process;whiteSpace=wrap;html=1;backgroundOutline=1;" vertex="1" parent="1">
          <mxGeometry x="620" y="234" width="120" height="60" as="geometry" />
        </mxCell>
        <mxCell id="qFBe6iegYuQv1x9OlSm3-10" value="/get_one" style="shape=process;whiteSpace=wrap;html=1;backgroundOutline=1;" vertex="1" parent="1">
          <mxGeometry x="620" y="314" width="120" height="60" as="geometry" />
        </mxCell>
        <mxCell id="qFBe6iegYuQv1x9OlSm3-12" style="edgeStyle=orthogonalEdgeStyle;rounded=0;orthogonalLoop=1;jettySize=auto;html=1;entryX=0;entryY=0.5;entryDx=0;entryDy=0;" edge="1" parent="1" source="qFBe6iegYuQv1x9OlSm3-11" target="qFBe6iegYuQv1x9OlSm3-8">
          <mxGeometry relative="1" as="geometry" />
        </mxCell>
        <mxCell id="qFBe6iegYuQv1x9OlSm3-13" style="edgeStyle=orthogonalEdgeStyle;rounded=0;orthogonalLoop=1;jettySize=auto;html=1;exitX=1;exitY=0.5;exitDx=0;exitDy=0;entryX=0;entryY=0.5;entryDx=0;entryDy=0;" edge="1" parent="1" source="qFBe6iegYuQv1x9OlSm3-11" target="qFBe6iegYuQv1x9OlSm3-9">
          <mxGeometry relative="1" as="geometry" />
        </mxCell>
        <mxCell id="qFBe6iegYuQv1x9OlSm3-14" style="edgeStyle=orthogonalEdgeStyle;rounded=0;orthogonalLoop=1;jettySize=auto;html=1;exitX=1;exitY=0.5;exitDx=0;exitDy=0;entryX=0;entryY=0.5;entryDx=0;entryDy=0;" edge="1" parent="1" source="qFBe6iegYuQv1x9OlSm3-11" target="qFBe6iegYuQv1x9OlSm3-10">
          <mxGeometry relative="1" as="geometry" />
        </mxCell>
        <mxCell id="qFBe6iegYuQv1x9OlSm3-11" value="GET" style="text;html=1;align=center;verticalAlign=middle;whiteSpace=wrap;rounded=0;" vertex="1" parent="1">
          <mxGeometry x="490" y="249" width="60" height="30" as="geometry" />
        </mxCell>
        <mxCell id="qFBe6iegYuQv1x9OlSm3-19" style="edgeStyle=orthogonalEdgeStyle;rounded=0;orthogonalLoop=1;jettySize=auto;html=1;entryX=0;entryY=0.5;entryDx=0;entryDy=0;" edge="1" parent="1" source="qFBe6iegYuQv1x9OlSm3-15" target="qFBe6iegYuQv1x9OlSm3-17">
          <mxGeometry relative="1" as="geometry" />
        </mxCell>
        <mxCell id="qFBe6iegYuQv1x9OlSm3-20" style="edgeStyle=orthogonalEdgeStyle;rounded=0;orthogonalLoop=1;jettySize=auto;html=1;exitX=0.5;exitY=1;exitDx=0;exitDy=0;entryX=0;entryY=0.5;entryDx=0;entryDy=0;" edge="1" parent="1" source="qFBe6iegYuQv1x9OlSm3-15" target="qFBe6iegYuQv1x9OlSm3-18">
          <mxGeometry relative="1" as="geometry" />
        </mxCell>
        <mxCell id="qFBe6iegYuQv1x9OlSm3-15" value="POST" style="text;html=1;align=center;verticalAlign=middle;whiteSpace=wrap;rounded=0;" vertex="1" parent="1">
          <mxGeometry x="344" y="340" width="60" height="30" as="geometry" />
        </mxCell>
        <mxCell id="qFBe6iegYuQv1x9OlSm3-17" value="/insert_one" style="shape=process;whiteSpace=wrap;html=1;backgroundOutline=1;" vertex="1" parent="1">
          <mxGeometry x="398" y="480" width="120" height="60" as="geometry" />
        </mxCell>
        <mxCell id="qFBe6iegYuQv1x9OlSm3-18" value="/insert_many" style="shape=process;whiteSpace=wrap;html=1;backgroundOutline=1;" vertex="1" parent="1">
          <mxGeometry x="398" y="410" width="120" height="60" as="geometry" />
        </mxCell>
      </root>
    </mxGraphModel>
  </diagram>
</mxfile>
